<?xml version="1.0" encoding="UTF-8"?>
<svg id="Lager_1" data-name="Lager 1" xmlns="http://www.w3.org/2000/svg" viewBox="0 0 116.69 98">
  <defs>
    <style>
      .cls-1 {
        fill: #e9e9e9;
      }
    </style>
  </defs>
  <path class="cls-1" d="m3.69,0h113l-20,27.5,20,27.5H3.69V0Z"/>
  <path d="m28.76,34.92h-7.18v-15.83h7.69c1.94.03,3.32.59,4.12,1.69.49.67.73,1.48.73,2.42s-.24,1.74-.73,2.33c-.27.33-.67.63-1.2.9.81.29,1.42.76,1.83,1.4.42.64.62,1.41.62,2.32s-.24,1.78-.71,2.52c-.3.49-.68.91-1.13,1.25-.51.39-1.11.65-1.8.8-.69.14-1.44.21-2.25.21Zm-.08-6.97h-3.94v4.22h3.89c.69,0,1.24-.09,1.62-.28.7-.34,1.05-1,1.05-1.98,0-.82-.34-1.39-1.02-1.7-.38-.17-.91-.26-1.6-.27Zm1.64-3.02c.43-.26.64-.72.64-1.39,0-.74-.29-1.22-.86-1.46-.49-.16-1.12-.25-1.89-.25h-3.48v3.49h3.89c.69,0,1.26-.13,1.7-.4Zm18.12,3.07h-7.69v4.07h8.77v2.85h-12v-15.83h11.61v2.8h-8.38v3.36h7.69v2.75Zm15.16-8.92v2.8h-4.74v13.03h-3.33v-13.03h-4.76v-2.8h12.83Zm9.58,12.58h-5.83l-1.1,3.25h-3.46l5.65-15.83h3.74l5.61,15.83h-3.59l-1.02-3.25Zm-.92-2.73l-1.98-6.23-2.04,6.23h4.02Z"/>
  <rect class="cls-1" width="4" height="98"/>
</svg>
