<?xml version="1.0" encoding="UTF-8"?>
<svg xmlns="http://www.w3.org/2000/svg" version="1.1" viewBox="0 0 1269.1 285.5">
  <defs>
    <style>
      .cls-1 {
        fill: #000;
      }
    </style>
  </defs>
  <!-- Generator: Adobe Illustrator 28.6.0, SVG Export Plug-In . SVG Version: 1.2.0 Build 709)  -->
  <g>
    <g id="Lager_1">
      <path class="cls-1" d="M56.6,258.1c50.6,0,80.7-30.3,80.7-81.1V0h25.7v184.8c0,57.2-36.8,98.6-103.2,98.6H0v-25.3h56.6ZM115.2,0v179.9c0,29.5-19.6,55.8-56.2,55.8H0v-25.3h53.7c24.1,0,35.8-13.5,35.8-37.6V0h25.7Z"/>
      <path class="cls-1" d="M348.4,258.1v25.3h-59.8c-66.5,0-103.2-41.4-103.2-98.6V0h25.7v177c0,50.8,30.2,81.1,80.8,81.1h56.5ZM258.8,0v172.8c0,24.1,11.7,37.6,35.8,37.6h53.7v25.3h-59c-36.6,0-56.2-26.4-56.2-55.8V0h25.7Z"/>
      <path class="cls-1" d="M484.4,123.5l-22.3-44h-24.9v44h-23.7V0h49.2C490.4,0,507.7,15.4,507.7,40.1s-8.3,28.7-22.8,35.1l24.9,48.2h-25.4ZM437.3,60.9h23.9c14.2,0,23.3-8.2,23.3-20.8s-9.2-20.8-23.4-20.8h-23.8v41.6h0Z"/>
      <path class="cls-1" d="M654.5,123.6c-22.5,0-37.4-17.8-37.4-44.2s15.3-44.6,37.3-44.6,20.9,4.3,27.6,17.5h0v-15.7h22.3v84.5c0,32.1-23.1,38.8-42.4,38.8s-37.2-9.7-40.3-26.6h21.8c2.2,6.7,8.9,10.5,18.5,10.5s20.1-7.4,20.1-20.7v-18.1h0c-6,14.4-16.4,18.6-27.5,18.6ZM660.9,52.3c-13,0-21.1,10.3-21.1,26.8s8.1,26.9,21.1,26.9,22.1-10.9,22.1-26.9-8.9-26.8-22.1-26.8h0Z"/>
      <path class="cls-1" d="M809.4,125.5c-26.4,0-44.1-18.2-44.1-45.4s17.7-45.5,44.1-45.5,44.2,18.3,44.2,45.5-17.8,45.4-44.2,45.4ZM809.4,52.5c-12.9,0-21.3,10.9-21.3,27.6s8.4,27.5,21.3,27.5,21.4-10.5,21.4-27.5-8.4-27.6-21.4-27.6Z"/>
      <path class="cls-1" d="M929.5,123.5v-50.1c0-12.4-6.4-19.4-17.5-19.4s-18.6,7.7-18.6,21.1v48.4h-22.6V36.6h22.2v16c6.8-11.6,15.9-17.8,29-17.8,18.8,0,30.1,12.7,30.1,34.1v54.7h-22.6Z"/>
      <path class="cls-1" d="M561.8,125.5c-26,0-43.4-18.2-43.4-45.4s17.5-45.5,42.6-45.5,42.8,18.1,42.8,45v5.5h-63.4c0,15.8,9.3,24,22.3,24s16.7-4.3,19.5-11.4h20.5c-4,16.4-20.7,27.8-40.9,27.8h0ZM561.4,50.8c-11.2,0-19.9,7-21.1,20.8h42.3c-1.1-14-10.2-20.8-21.2-20.8Z"/>
      <rect class="cls-1" x="725.5" y="36.6" width="22.6" height="86.9"/>
      <rect class="cls-1" x="725.3" y="0" width="23" height="20.6"/>
      <path class="cls-1" d="M559.8,283.5c-19,0-27.5-6.9-27.5-22.5v-47.1h-15.3v-17.2h15.4v-24.3h22.6v24.3h18.2v17.2h-18.2v43.2c0,6.8,2.6,9.1,9.8,9.1h8.4v17.2h-13.4Z"/>
      <path class="cls-1" d="M628.2,285.5c-26.4,0-44.1-18.2-44.1-45.4s17.7-45.5,44.1-45.5,44.2,18.3,44.2,45.5-17.8,45.4-44.2,45.4ZM628.2,212.5c-12.9,0-21.3,10.9-21.3,27.6s8.4,27.5,21.3,27.5,21.4-10.5,21.4-27.5-8.4-27.6-21.4-27.6h0Z"/>
      <path class="cls-1" d="M729.9,285.5c-26.1,0-43.6-18.2-43.6-45.4s17.5-45.5,43.6-45.5,38.5,13.3,40.6,33.1h-21.8c-1.7-9.4-8.8-15.3-18.4-15.3s-21.1,10.6-21.1,27.7,8.1,27.5,21.1,27.5,16.2-5.5,18.2-15.5h22.1c-1.8,19.7-18.4,33.4-40.7,33.4h0Z"/>
      <polygon class="cls-1" points="845.1 283.5 818.4 246.6 810 255.9 810 283.5 787.3 283.5 787.3 160 810 160 810 232.5 810.2 232.5 843.1 196.6 869.2 196.6 835.5 234.1 871.4 283.5 845.1 283.5"/>
      <path class="cls-1" d="M942.5,283.5v-50.1c0-12.4-6.4-19.5-17.5-19.5s-18.6,7.7-18.6,21.1v48.4h-22.6v-123.4h22.6v51.9c6.4-10.6,15.1-17.1,28.6-17.1s30.1,12.7,30.1,34.1v54.6h-22.6Z"/>
      <path class="cls-1" d="M1026.4,285.5c-26.4,0-44.1-18.2-44.1-45.4s17.7-45.5,44.1-45.5,44.2,18.3,44.2,45.5-17.8,45.4-44.2,45.4ZM1026.4,212.5c-12.9,0-21.3,10.9-21.3,27.6s8.4,27.5,21.3,27.5,21.4-10.5,21.4-27.5-8.4-27.6-21.4-27.6h0Z"/>
      <path class="cls-1" d="M1115.5,283.5c-19.7,0-27.7-6.7-27.7-23v-100.5h22.6v98.1c0,6.2,2.4,8.6,8.7,8.6h2.5v16.8h-6.1Z"/>
      <path class="cls-1" d="M459.3,285.5c-31.6,0-49.9-15.6-49.9-41.4h22.8c.7,14.2,11.1,22.3,27.2,22.3s25.1-6.8,25.1-17.2-6.8-13.8-23.4-17.4l-13.2-2.9c-24.3-5.3-36.1-16.3-36.1-33.8s18.7-37.1,46.6-37.1,45.4,14.4,46.5,38.7h-22.1c-1.2-12.2-10.7-19.6-24.3-19.6s-23,6.9-23,16.8,9,13.6,22.6,16.5l12.1,2.6c26.2,5.5,37.8,16.2,37.8,34.5.1,23.4-18.6,38-48.7,38h0Z"/>
      <path class="cls-1" d="M1246.5,283.5v-53.4c0-10.5-6.2-17.1-16.2-17.1s-16.8,7.2-16.8,17.9v52.5h-21.7v-54.1c0-9.8-6.4-16.4-15.9-16.4s-17.1,7.6-17.1,19v51.5h-22.6v-86.9h21.7v17.8c5-11.7,15.8-19.6,28.1-19.6s21.8,6.5,25.6,19c5.1-12.8,15.6-19,28.6-19s28.7,12.1,28.7,30.8v58h-22.4Z"/>
    </g>
  </g>
</svg>
